<svg width="8" height="8" viewBox="0 0 8 8" fill="none" xmlns="http://www.w3.org/2000/svg">
<path d="M1.66242 3.80246C1.66243 3.75772 1.67125 3.71343 1.68839 3.67212C1.70554 3.63081 1.73065 3.5933 1.7623 3.56175C1.79395 3.53019 1.83151 3.50521 1.87282 3.48823C1.91413 3.47126 1.95839 3.46263 2.00304 3.46284L2.56775 3.46469C2.65779 3.46469 2.74414 3.50053 2.80781 3.56432C2.87148 3.6281 2.90725 3.71462 2.90725 3.80483V5.94434C2.97085 5.92546 3.05225 5.90532 3.14182 5.88419C3.20387 5.86956 3.25918 5.83436 3.29877 5.78429C3.33835 5.73423 3.3599 5.67223 3.35991 5.60836V2.95464C3.35991 2.86442 3.39568 2.7779 3.45935 2.7141C3.52301 2.6503 3.60937 2.61445 3.69941 2.61443H4.26584C4.35588 2.61445 4.44224 2.6503 4.5059 2.7141C4.56957 2.7779 4.60534 2.86442 4.60534 2.95464V5.41772C4.60534 5.41772 4.74704 5.36027 4.88499 5.3019C4.93625 5.28018 4.97999 5.24381 5.01076 5.19734C5.04153 5.15088 5.05796 5.09636 5.058 5.0406V2.10425C5.058 2.01405 5.09376 1.92754 5.15742 1.86376C5.22107 1.79997 5.30741 1.76413 5.39744 1.76411H5.96327C6.05325 1.7642 6.13952 1.80007 6.20312 1.86385C6.26671 1.92763 6.30244 2.0141 6.30244 2.10425V4.52223C6.793 4.16604 7.29015 3.73761 7.68469 3.22248C7.74193 3.1477 7.77981 3.05989 7.79494 2.96689C7.81007 2.87388 7.802 2.77857 7.77142 2.68945C7.5888 2.16303 7.29849 1.68061 6.91909 1.27305C6.53969 0.865489 6.07955 0.54177 5.56811 0.322606C5.05667 0.103442 4.5052 -0.0063411 3.94898 0.000282856C3.39276 0.00690681 2.84405 0.129791 2.33796 0.361073C1.83186 0.592355 1.37953 0.926941 1.00991 1.34342C0.640281 1.7599 0.361505 2.2491 0.191416 2.77972C0.0213268 3.31034 -0.0363292 3.87069 0.022137 4.42491C0.0806032 4.97913 0.253904 5.51502 0.53095 5.99829C0.579218 6.08166 0.650231 6.1495 0.735646 6.19383C0.821061 6.23816 0.91733 6.25715 1.01314 6.24856C1.12018 6.23912 1.25345 6.22578 1.4119 6.20716C1.48085 6.1993 1.54452 6.1663 1.59077 6.11445C1.63701 6.0626 1.66261 5.99552 1.66268 5.92599V3.80246" fill="white"/>
<path d="M1.65039 7.23361C2.24682 7.66833 2.95165 7.92926 3.68691 7.98755C4.42217 8.04583 5.15919 7.89919 5.81643 7.56386C6.47367 7.22852 7.02551 6.71756 7.41089 6.0875C7.79627 5.45745 8.00017 4.73286 8.00003 3.9939C8.00003 3.90145 7.99575 3.81046 7.98962 3.71973C6.52887 5.90249 3.83173 6.92292 1.65039 7.23361Z" fill="white"/>
</svg>
