<svg width="9" height="10" viewBox="0 0 9 10" fill="none" xmlns="http://www.w3.org/2000/svg">
<g clip-path="url(#clip0_4499_2727)">
<path d="M5.625 0.875H1.5C1.0875 0.875 0.75 1.2125 0.75 1.625V6.5C0.75 6.70625 0.91875 6.875 1.125 6.875C1.33125 6.875 1.5 6.70625 1.5 6.5V2C1.5 1.79375 1.66875 1.625 1.875 1.625H5.625C5.83125 1.625 6 1.45625 6 1.25C6 1.04375 5.83125 0.875 5.625 0.875ZM5.84625 2.59625L7.6575 4.4075C7.79625 4.54625 7.875 4.7375 7.875 4.93625V8.375C7.875 8.7875 7.5375 9.125 7.125 9.125H2.99625C2.58375 9.125 2.25 8.7875 2.25 8.375L2.25375 3.125C2.25375 2.7125 2.5875 2.375 3 2.375H5.31375C5.5125 2.375 5.70375 2.45375 5.84625 2.59625ZM5.625 5H7.3125L5.25 2.9375V4.625C5.25 4.83125 5.41875 5 5.625 5Z" fill="white"/>
</g>
<defs>
<clipPath id="clip0_4499_2727">
<rect width="9" height="9" fill="white" transform="translate(0 0.5)"/>
</clipPath>
</defs>
</svg>
