<svg width="8" height="8" viewBox="0 0 8 8" fill="none" xmlns="http://www.w3.org/2000/svg">
<g clip-path="url(#clip0_4499_2733)">
<path fill-rule="evenodd" clip-rule="evenodd" d="M4.68843 2.84976C4.93315 2.72773 5.24454 2.54811 5.5563 2.302C5.62203 2.43851 5.62923 2.55763 5.59537 2.65381C5.57137 2.7216 5.52614 2.78056 5.46667 2.82747C5.40227 2.87816 5.32185 2.91507 5.23294 2.93501C5.06425 2.97301 4.86729 2.95083 4.68843 2.84976ZM4.73086 4.10005L5.05481 4.28717C4.39337 4.65789 4.21355 5.34627 3.99995 6.01675C3.78638 5.34627 3.60654 4.65789 2.94513 4.28717L3.26907 4.10005C3.30041 4.08821 3.3272 4.06675 3.34559 4.03875C3.36399 4.01075 3.37305 3.97765 3.37147 3.94419C3.34179 3.31627 3.51134 3.03859 3.74003 2.86424C3.82206 2.80179 3.91161 2.77043 3.99995 2.77043C4.0883 2.77043 4.17785 2.80179 4.2599 2.86424C4.48859 3.03859 4.65814 3.31627 4.62846 3.94419C4.62689 3.97765 4.63595 4.01075 4.65434 4.03875C4.67274 4.06675 4.69952 4.08821 4.73086 4.10005ZM3.99995 0C4.37441 0.0100533 4.74979 0.0827467 5.07558 0.22416C5.30118 0.322213 5.51169 0.451733 5.7023 0.606613C5.78838 0.676533 5.85926 0.74408 5.93734 0.82184C6.14793 0.82912 6.45569 0.595173 6.59857 0.376267C6.35267 1.1824 5.23059 2.13437 4.45377 2.49864C4.45345 2.49851 4.45323 2.49832 4.45299 2.49816C4.31358 2.39171 4.15678 2.33848 3.99995 2.33848C3.84313 2.33848 3.68635 2.39171 3.54694 2.49816C3.5467 2.49829 3.54649 2.49853 3.54617 2.49864C2.76931 2.13437 1.64726 1.1824 1.40137 0.376267C1.54422 0.595173 1.85198 0.82912 2.06257 0.82184C2.14067 0.744107 2.21155 0.676533 2.29761 0.606613C2.48822 0.451733 2.69873 0.322213 2.92433 0.22416C3.25014 0.0827467 3.62553 0.0100533 3.99995 0ZM3.31147 2.84976C3.06678 2.72773 2.75537 2.54811 2.44363 2.302C2.3779 2.43851 2.3707 2.55763 2.40454 2.65381C2.42857 2.7216 2.47379 2.78056 2.53323 2.82747C2.59766 2.87816 2.67809 2.91507 2.76699 2.93501C2.93569 2.97301 3.13262 2.95083 3.31147 2.84976Z" fill="white"/>
<path fill-rule="evenodd" clip-rule="evenodd" d="M5.89768 2.00045C6.06931 1.82725 6.22053 1.63554 6.34213 1.46448L6.40389 1.58072C6.60272 1.9785 6.70603 2.37469 6.70603 2.82056L6.7056 3.52808L6.70933 3.89485C6.72373 4.79528 6.91856 5.70629 7.35989 6.54L6.43651 5.79541L5.78315 6.85565L5.09675 6.20949L3.99989 7.98946L2.90304 6.20952L2.21667 6.85568L1.56331 5.79544L0.639893 6.54002C1.08123 5.70632 1.27605 4.7953 1.29048 3.89488L1.29421 3.5281L1.29379 2.82058C1.29379 2.37469 1.39707 1.9785 1.59595 1.58074L1.65768 1.4645C1.77928 1.63557 1.93048 1.82725 2.10213 2.00048L2.04853 2.11181C1.9444 2.32805 1.90992 2.56984 1.99104 2.79978C2.04333 2.94789 2.13877 3.0749 2.26181 3.17186C2.38128 3.26602 2.52267 3.32949 2.67069 3.36282C2.76712 3.38453 2.86536 3.39346 2.96296 3.39042C2.94019 3.51952 2.93024 3.65341 2.9296 3.78984L2.05856 4.29293L2.73072 4.6697C2.78444 4.69982 2.83559 4.73433 2.88363 4.77288C3.43779 5.27042 3.77096 6.74234 3.99992 7.4613C4.22891 6.74234 4.56205 5.27042 5.11624 4.77288C5.16427 4.73433 5.21542 4.69982 5.26915 4.6697L5.94131 4.29293L5.07024 3.78984C5.0696 3.65341 5.05965 3.51952 5.03688 3.39042C5.13448 3.39346 5.23272 3.38453 5.32915 3.36282C5.47717 3.32949 5.61859 3.26602 5.73803 3.17186C5.86104 3.0749 5.95651 2.94789 6.00877 2.79978C6.08992 2.56984 6.05541 2.32808 5.95131 2.11181L5.89771 2.00048L5.89768 2.00045Z" fill="white"/>
</g>
<defs>
<clipPath id="clip0_4499_2733">
<rect width="6.72" height="8" fill="white" transform="translate(0.639893)"/>
</clipPath>
</defs>
</svg>
